<?xml version="1.0" encoding="UTF-8" standalone="no"?>
<svg xmlns:dc="http://purl.org/dc/elements/1.1/" xmlns:cc="http://creativecommons.org/ns#" xmlns:rdf="http://www.w3.org/1999/02/22-rdf-syntax-ns#" xmlns:svg="http://www.w3.org/2000/svg" xmlns="http://www.w3.org/2000/svg" viewBox="0 0 244.69333 82.493332" height="82.493332" width="244.69333" xml:space="preserve" id="svg2" version="1.1">
  <metadata id="metadata8"></metadata>
  <defs id="defs6"></defs>
  <g transform="matrix(1.3333333,0,0,-1.3333333,0,82.493333)" id="g10">
    <g transform="scale(0.1)" id="g12">
      <path id="path14" style="fill:#1d5e9d;fill-opacity:1;fill-rule:nonzero;stroke:none" d="m 1473.33,146.777 v 395.606 h -57.25 v 45.058 h 174 v -45.058 h -58.36 V 146.777 Z m -270.23,0 v 440.664 h 54.96 c 20.78,-92.246 50.59,-183.671 67.57,-282.089 -1.28,37.246 -5.97,115.703 -5.73,155.019 v 127.07 h 58.39 V 146.777 h -54.97 c -20.93,92.676 -50.77,184.102 -67.56,282.051 1.11,-36.816 5.8,-115.234 5.71,-154.082 V 146.777 Z m -117.94,0 v 440.664 h 58.38 V 146.777 Z m -117.902,45.957 v 349.649 h -57.27 V 192.734 Z M 851.57,211.641 v 311.797 c -0.175,37.246 39.094,68.105 87.035,68.496 47.79,-0.391 87.065,-31.25 87.025,-68.496 V 211.641 c 0.04,-37.696 -39.235,-68.555 -87.025,-68.477 -47.941,-0.078 -87.21,30.781 -87.035,68.477 z M 689.016,542.383 V 390.059 h 58.386 v 152.324 z m -57.27,-395.606 v 440.664 h 115.656 c 32.403,0.43 58.34,-19.98 58.411,-45.058 V 390.059 c -0.071,-25.235 -26.008,-45.606 -58.411,-45.938 H 689.016 V 146.777 Z m 1142.694,0 v 395.606 h -48.08 v 45.058 h 106.46 V 146.777 h -58.38"></path>
      <path id="path16" style="fill:#1d5e9d;fill-opacity:1;fill-rule:nonzero;stroke:none" d="M 390.93,202.734 H 315.234 V 491.68 h -54.129 v 47.617 l 129.825,22.969 z m -202.129,29.571 c 0,-9.258 -1.172,-15.215 -3.535,-17.91 -2.328,-2.696 -9.512,-4.043 -21.555,-4.043 h -53.328 c -5.254,0 -8.977,1.543 -11.1057,4.609 -2.1171,3.086 -3.1914,8.867 -3.1914,17.344 v 47.929 c 0,9.043 1.1719,14.903 3.4727,17.598 2.3554,2.695 9.5354,4.063 21.5934,4.063 h 42.559 10.801 c 5.222,0 8.933,-1.485 11.062,-4.473 2.153,-2.988 3.227,-8.711 3.227,-17.188 z M 456.965,618.691 H 22.3359 c -10.4218,0 -18.88668,-8.457 -18.88668,-18.906 v -434.59 c 0,-10.429 8.46488,-18.886 18.88668,-18.886 H 456.965 c 10.43,0 18.887,8.457 18.887,18.886 v 434.59 c 0,10.449 -8.457,18.906 -18.887,18.906"></path>
      <path id="path18" style="fill:#1d5e9d;fill-opacity:1;fill-rule:nonzero;stroke:none" d="M 12.6758,43.5039 V 10.6641 h 14.043 c 4.5312,0.0664 9.7265,0.1367 13.1054,4.9609 1.5156,2.0898 3.1055,5.625 3.1055,12.0313 0,4.8242 -1.0938,8.1328 -2.5195,10.4375 -3.3204,5.2656 -8.6524,5.332 -13.0469,5.4101 z M 0,52.5 h 27.793 c 1.875,-0.0703 3.75,-0.0703 5.625,-0.2852 14.8359,-1.3671 22.1875,-11.7382 22.1875,-24.8437 0,-5.8398 -1.4453,-11.6016 -4.9805,-16.2773 C 43.4961,1.79688 33.9258,1.72656 26.2109,1.66016 H 0 V 52.5"></path>
      <path id="path20" style="fill:#1d5e9d;fill-opacity:1;fill-rule:nonzero;stroke:none" d="M 96.6992,52.5 H 109.434 V 1.66016 H 96.6992 V 52.5"></path>
      <path id="path22" style="fill:#1d5e9d;fill-opacity:1;fill-rule:nonzero;stroke:none" d="m 160.273,17.4297 c 2.872,-6.1211 10.157,-7.99611 17.071,-7.99611 3.086,0 12.812,0.50782 12.812,6.69921 0,3.6719 -3.523,4.5391 -6.269,5.0391 -2.078,0.4375 -12.52,2.0195 -14.903,2.4492 -4.687,0.8711 -16.484,3.0977 -16.484,14.6211 0,2.5195 0.715,5.1172 2.012,7.207 4.25,6.836 13.613,8.6406 21.679,8.6406 7.422,0 13.106,-1.082 18.36,-3.9609 5.195,-2.8164 7.422,-6.5547 8.429,-8.2148 l -12.101,-3.0196 c -0.43,0.793 -1.445,2.6563 -4.465,4.1719 -3.387,1.6602 -7.781,1.9414 -10.223,1.9414 -5.625,0 -11.386,-1.0742 -11.386,-5.8984 0,-3.3203 2.949,-4.1797 6.777,-5.0469 2.09,-0.4297 12.461,-2.1602 14.832,-2.6562 5.91,-1.086 15.91,-3.2422 15.91,-14.4024 0,-16.359369 -19.433,-16.9374937 -25.847,-16.9374937 -8.352,0 -21.243,1.4453137 -27.805,14.3358937 l 11.601,3.0274"></path>
      <path id="path24" style="fill:#1d5e9d;fill-opacity:1;fill-rule:nonzero;stroke:none" d="m 255.742,29.7461 h 15.703 c 4.102,0 9.727,0.0664 9.727,6.8437 0,2.7344 -0.938,4.4649 -2.168,5.6172 -1.719,1.5118 -3.594,1.5118 -8.926,1.5118 h -14.336 z m -12.527,22.832 h 31.394 c 5.411,0 12.395,-0.2148 16.426,-5.9765 1.797,-2.5977 2.813,-6.125 2.813,-10.0118 0,-4.9023 -1.582,-8.2109 -3.457,-10.4492 -4.18,-5.039 -10.301,-5.332 -16.856,-5.332 H 255.742 V 1.66016 H 243.215 V 52.5781"></path>
      <path id="path26" style="fill:#1d5e9d;fill-opacity:1;fill-rule:nonzero;stroke:none" d="m 332.5,52.5 h 12.734 V 11.0156 h 28.243 V 1.66016 H 332.5 V 52.5"></path>
      <path id="path28" style="fill:#1d5e9d;fill-opacity:1;fill-rule:nonzero;stroke:none" d="m 438.203,36.875 c -0.371,0.6445 -0.652,1.3672 -0.879,2.0195 -0.215,0.6446 -0.351,1.2891 -0.429,2.0118 -0.215,-0.6446 -0.352,-1.2188 -0.5,-1.7969 -0.282,-0.6524 -0.497,-1.2969 -0.79,-1.9414 l -7.714,-16.9336 h 17.871 z M 430.137,52.5 h 13.75 L 468.438,1.66016 H 454.18 l -4.317,9.57814 H 423.789 L 419.473,1.66016 H 405.566 L 430.137,52.5"></path>
      <path id="path30" style="fill:#1d5e9d;fill-opacity:1;fill-rule:nonzero;stroke:none" d="m 490.242,52.5 h 15.696 l 13.476,-19.1523 c 1.008,-1.2969 1.074,-1.5899 1.445,-2.5938 0.43,1.0039 0.567,1.2969 1.211,2.2344 L 535.977,52.5 h 15.488 L 527.188,20.7422 V 1.66016 H 514.441 V 20.7422 L 490.242,52.5"></path>
      <path id="path32" style="fill:#1d5e9d;fill-opacity:1;fill-rule:nonzero;stroke:none" d="m 592.422,17.4297 c 2.871,-6.1211 10.144,-7.99611 17.058,-7.99611 3.098,0 12.825,0.50782 12.825,6.69921 0,3.6719 -3.535,4.5391 -6.27,5.0391 -2.09,0.4375 -12.527,2.0195 -14.902,2.4492 -4.688,0.8711 -16.504,3.0977 -16.504,14.6211 0,2.5195 0.723,5.1172 2.031,7.207 4.238,6.836 13.606,8.6406 21.668,8.6406 7.414,0 13.117,-1.082 18.371,-3.9609 5.176,-2.8164 7.422,-6.5547 8.418,-8.2148 l -12.09,-3.0196 c -0.429,0.793 -1.445,2.6563 -4.472,4.1719 -3.379,1.6602 -7.774,1.9414 -10.227,1.9414 -5.613,0 -11.375,-1.0742 -11.375,-5.8984 0,-3.3203 2.949,-4.1797 6.77,-5.0469 2.09,-0.4297 12.461,-2.1602 14.832,-2.6562 5.91,-1.086 15.918,-3.2422 15.918,-14.4024 0,-16.359369 -19.446,-16.9374937 -25.86,-16.9374937 -8.347,0 -21.242,1.4453137 -27.793,14.3358937 l 11.602,3.0274"></path>
      <path id="path34" style="fill:#1d5e9d;fill-opacity:1;fill-rule:nonzero;stroke:none" d="m 916.777,29.7461 h 15.703 c 4.102,0 9.715,0.0664 9.715,6.8437 0,2.7344 -0.925,4.4649 -2.156,5.6172 -1.726,1.5118 -3.601,1.5118 -8.926,1.5118 h -14.336 z m -12.539,22.832 h 31.407 c 5.402,0 12.382,-0.2148 16.425,-5.9765 1.797,-2.5977 2.801,-6.125 2.801,-10.0118 0,-4.9023 -1.578,-8.2109 -3.453,-10.4492 -4.172,-5.039 -10.305,-5.332 -16.848,-5.332 H 916.777 V 1.66016 H 904.238 V 52.5781"></path>
      <path id="path36" style="fill:#1d5e9d;fill-opacity:1;fill-rule:nonzero;stroke:none" d="m 1006.27,31.1133 h 20.31 c 2.74,0 7.64,0.3594 7.64,6.0547 0,1.0039 -0.15,2.7343 -1.02,3.9531 -0.93,1.2305 -2.16,2.4531 -7.19,2.4531 h -19.74 z M 993.516,52.5 h 35.014 c 5.76,0 11.02,-0.4961 15.26,-5.4023 2.6,-3.0157 3.32,-6.836 3.32,-9.793 0,-3.8867 -1.3,-8.4961 -4.9,-11.2305 -2.74,-2.0898 -6.27,-2.8125 -8.28,-3.1758 l 15.41,-21.23824 h -14.98 l -13.62,20.44924 h -14.47 V 1.66016 H 993.516 V 52.5"></path>
      <path id="path38" style="fill:#1d5e9d;fill-opacity:1;fill-rule:nonzero;stroke:none" d="m 1108.01,65.3984 h 12.24 l -8.71,-8.9336 h -7.28 z M 1085.54,52.5 h 47.39 v -9.1406 h -34.65 V 31.9023 h 33.5 v -9.0039 h -33.5 V 10.7305 h 36.09 V 1.66016 h -48.83 V 52.5"></path>
      <path id="path40" style="fill:#1d5e9d;fill-opacity:1;fill-rule:nonzero;stroke:none" d="m 1180.72,17.4297 c 2.87,-6.1211 10.16,-7.99611 17.07,-7.99611 3.09,0 12.82,0.50782 12.82,6.69921 0,3.6719 -3.53,4.5391 -6.27,5.0391 -2.08,0.4375 -12.52,2.0195 -14.91,2.4492 -4.68,0.8711 -16.48,3.0977 -16.48,14.6211 0,2.5195 0.71,5.1172 2.01,7.207 4.25,6.836 13.61,8.6406 21.68,8.6406 7.42,0 13.11,-1.082 18.36,-3.9609 5.2,-2.8164 7.42,-6.5547 8.43,-8.2148 l -12.1,-3.0196 c -0.43,0.793 -1.45,2.6563 -4.46,4.1719 -3.39,1.6602 -7.79,1.9414 -10.23,1.9414 -5.62,0 -11.39,-1.0742 -11.39,-5.8984 0,-3.3203 2.95,-4.1797 6.78,-5.0469 2.09,-0.4297 12.46,-2.1602 14.84,-2.6562 5.9,-1.086 15.9,-3.2422 15.9,-14.4024 0,-16.359369 -19.43,-16.9374937 -25.85,-16.9374937 -8.35,0 -21.24,1.4453137 -27.8,14.3358937 l 11.6,3.0274"></path>
      <path id="path42" style="fill:#1d5e9d;fill-opacity:1;fill-rule:nonzero;stroke:none" d="m 1263.73,52.5 h 47.39 v -9.1406 h -34.64 V 31.9023 h 33.49 v -9.0039 h -33.49 V 10.7305 h 36.08 V 1.66016 h -48.83 V 52.5"></path>
      <path id="path44" style="fill:#1d5e9d;fill-opacity:1;fill-rule:nonzero;stroke:none" d="m 1354.38,52.5 h 12.68 l 24.91,-28.3008 c 3.03,-3.5273 3.62,-4.25 6.78,-8.2148 -0.43,4.8242 -0.43,6.125 -0.51,10.5195 V 52.5 h 12.17 V 1.66016 h -12.6 L 1372.6,30.3203 c -2.66,3.0977 -3.73,4.3945 -6.55,8 0.36,-3.8984 0.36,-4.7578 0.43,-8.6445 V 1.66016 h -12.1 V 52.5"></path>
      <path id="path46" style="fill:#1d5e9d;fill-opacity:1;fill-rule:nonzero;stroke:none" d="m 1447.83,52.5 h 50.49 v -9.2891 h -18.87 V 1.66016 H 1466.7 V 43.2109 h -18.87 V 52.5"></path>
      <path id="path48" style="fill:#1d5e9d;fill-opacity:1;fill-rule:nonzero;stroke:none" d="m 1543.38,26.7188 c 0,-6.1915 2.3,-9.4336 3.24,-10.6563 1.23,-1.7266 4.98,-6.99219 14.84,-6.99219 11.88,0 18.23,8.06639 18.23,17.86329 0,11.3867 -8.58,18.3672 -18.73,18.0078 -8.5,-0.2851 -17.58,-5.9101 -17.58,-18.2226 z m 43.87,17.5 c 2.09,-2.5196 5.46,-8.1329 5.46,-16.6329 C 1592.71,11.3789 1582.21,0 1561.68,0 c -20.53,0 -31.41,11.1602 -31.41,27.0117 0,17.5 12.54,26.3555 29.24,27.0781 10.02,0.4297 21.4,-2.1679 27.74,-9.871"></path>
      <path id="path50" style="fill:#1d5e9d;fill-opacity:1;fill-rule:nonzero;stroke:none" d="m 1633.81,52.5 h 12.75 V 1.66016 h -12.75 V 52.5"></path>
      <path id="path52" style="fill:#1d5e9d;fill-opacity:1;fill-rule:nonzero;stroke:none" d="m 1704.16,31.1133 h 20.31 c 2.74,0 7.63,0.3594 7.63,6.0547 0,1.0039 -0.15,2.7343 -1.01,3.9531 -0.93,1.2305 -2.16,2.4531 -7.2,2.4531 h -19.73 z M 1691.41,52.5 h 35 c 5.76,0 11.02,-0.4961 15.27,-5.4023 2.6,-3.0157 3.32,-6.836 3.32,-9.793 0,-3.8867 -1.31,-8.4961 -4.9,-11.2305 -2.74,-2.0898 -6.27,-2.8125 -8.28,-3.1758 l 15.41,-21.23824 h -14.98 l -13.62,20.44924 h -14.47 V 1.66016 h -12.75 V 52.5"></path>
      <path id="path54" style="fill:#1d5e9d;fill-opacity:1;fill-rule:nonzero;stroke:none" d="m 1792.5,17.4297 c 2.87,-6.1211 10.16,-7.99611 17.07,-7.99611 3.09,0 12.81,0.50782 12.81,6.69921 0,3.6719 -3.52,4.5391 -6.27,5.0391 -2.08,0.4375 -12.52,2.0195 -14.9,2.4492 -4.69,0.8711 -16.48,3.0977 -16.48,14.6211 0,2.5195 0.71,5.1172 2.01,7.207 4.25,6.836 13.61,8.6406 21.68,8.6406 7.42,0 13.1,-1.082 18.36,-3.9609 5.19,-2.8164 7.42,-6.5547 8.43,-8.2148 l -12.1,-3.0196 c -0.43,0.793 -1.45,2.6563 -4.47,4.1719 -3.39,1.6602 -7.78,1.9414 -10.22,1.9414 -5.63,0 -11.39,-1.0742 -11.39,-5.8984 0,-3.3203 2.95,-4.1797 6.78,-5.0469 2.09,-0.4297 12.46,-2.1602 14.83,-2.6562 5.91,-1.086 15.91,-3.2422 15.91,-14.4024 0,-16.359369 -19.43,-16.9374937 -25.85,-16.9374937 -8.35,0 -21.24,1.4453137 -27.8,14.3358937 l 11.6,3.0274"></path>
      <path id="path56" style="fill:#1d5e9d;fill-opacity:1;fill-rule:nonzero;stroke:none" d="m 765.254,16.2109 c 0,-1.1132 -0.906,-2.0117 -2.031,-2.0117 h -12.149 c -1.113,0 -2.019,0.8985 -2.019,2.0117 v 12.1485 c 0,1.1328 0.906,2.0312 2.019,2.0312 h 12.149 c 1.125,0 2.031,-0.8984 2.031,-2.0312 V 16.2109"></path>
    </g>
  </g>
</svg>
